<?xml version="1.0" standalone="no"?>
<!DOCTYPE svg PUBLIC "-//W3C//DTD SVG 20010904//EN"
 "http://www.w3.org/TR/2001/REC-SVG-20010904/DTD/svg10.dtd">
<svg version="1.0" xmlns="http://www.w3.org/2000/svg"
 width="300.000000pt" height="300.000000pt" viewBox="0 0 300.000000 300.000000"
 preserveAspectRatio="xMidYMid meet">
<metadata>
Created by potrace 1.10, written by Peter Selinger 2001-2011
</metadata>
<g transform="translate(0.000000,300.000000) scale(0.100000,-0.100000)"
fill="#000000" stroke="none">
<path d="M2376 2538 c-9 -12 -16 -28 -16 -35 0 -9 -15 -13 -44 -13 -53 0 -70
-14 -120 -97 -45 -76 -56 -138 -49 -264 6 -98 -8 -179 -30 -179 -19 1 -60 40
-111 107 -65 87 -97 102 -136 63 -28 -28 -26 -93 6 -225 14 -59 23 -110 19
-113 -4 -4 -36 25 -73 65 -88 93 -117 102 -142 44 -14 -34 5 -126 50 -238 50
-125 39 -124 -85 2 -98 100 -123 112 -149 73 -18 -28 -10 -116 23 -254 12 -51
21 -114 19 -140 -3 -46 -5 -49 -32 -52 -25 -3 -40 9 -115 87 -91 95 -114 106
-146 71 -27 -30 -16 -135 24 -229 17 -40 31 -75 31 -78 0 -3 -20 11 -45 31
-63 52 -107 69 -140 54 -46 -21 -46 -100 0 -203 14 -32 25 -60 25 -62 0 -3
-28 21 -62 51 -72 64 -111 72 -136 26 -21 -39 -8 -168 28 -290 43 -144 46
-237 8 -301 -25 -43 -40 -53 -101 -73 -25 -8 -86 19 -126 57 -37 36 -69 99
-53 105 6 2 28 16 50 32 75 54 119 193 74 233 -25 23 -78 21 -117 -3 -36 -22
-80 -96 -90 -153 -4 -20 -12 -40 -17 -43 -13 -8 -98 82 -98 104 0 10 13 31 29
46 50 48 85 140 86 224 0 66 -3 76 -24 93 -49 40 -120 9 -160 -70 -28 -53 -44
-145 -36 -202 7 -47 6 -49 -17 -49 -29 0 -83 33 -98 59 -24 46 -80 8 -61 -41
19 -51 118 -103 173 -93 31 6 35 3 59 -38 32 -52 80 -92 128 -104 29 -7 37
-16 48 -50 31 -93 149 -183 238 -183 88 1 169 65 200 161 24 71 15 183 -24
319 -17 58 -31 125 -31 148 l0 44 80 -71 c80 -71 113 -84 138 -59 22 22 12 78
-34 189 -25 61 -43 114 -40 117 3 3 32 -15 63 -40 95 -74 126 -84 156 -50 26
28 21 64 -23 166 -56 130 -52 142 20 68 72 -74 119 -93 177 -71 46 17 73 65
73 126 0 23 -11 88 -25 145 -36 150 -36 151 44 75 96 -90 178 -112 201 -53 11
29 2 66 -44 190 -20 54 -35 100 -33 103 3 2 17 -11 31 -30 15 -19 46 -45 70
-58 38 -20 48 -21 70 -11 49 22 52 81 11 232 -8 30 -15 66 -15 78 0 20 6 16
40 -26 57 -73 99 -102 146 -102 83 1 104 48 104 237 l1 138 26 -53 c41 -86
115 -115 166 -64 21 21 37 112 31 173 -4 38 -3 42 8 25 7 -11 29 -37 48 -59
29 -32 44 -40 83 -44 58 -7 88 11 118 68 23 45 35 132 25 173 -12 48 -66 27
-66 -27 0 -46 -21 -115 -40 -132 -14 -13 -22 -14 -43 -4 -26 12 -75 93 -96
161 -26 80 -74 110 -105 66z m-12 -179 c9 -46 7 -142 -3 -158 -5 -7 -14 -10
-21 -6 -16 10 -46 82 -54 132 -7 38 -6 41 21 51 44 16 50 14 57 -19z m-1821
-1395 c-4 -52 -24 -110 -49 -140 l-25 -29 4 61 c5 65 40 148 60 141 7 -2 11
-17 10 -33z m212 -271 c-9 -21 -27 -49 -40 -63 -21 -21 -25 -22 -25 -7 0 36
44 107 66 107 12 0 12 -6 -1 -37z"/>
</g>
</svg>
